<svg xmlns="http://www.w3.org/2000/svg" viewBox="0 0 802.83 95"><defs><style>.cls-1{fill:#fff;}</style></defs><title>LiftMaster_LogoAsset 1</title><g id="Layer_2" data-name="Layer 2"><g id="Layer_1-2" data-name="Layer 1"><g id="Layer_1-2-2" data-name="Layer 1-2"><path class="cls-1" d="M0,0H36.55l.05,66.39h35V93L.06,93.06Z"/><path class="cls-1" d="M78.84,42.34h37V93.12h-37Zm37-5.27h-37v-14h37Z"/><path class="cls-1" d="M134.67,52.71H123v-19h11.65V28.18c.43-17.56,13.92-24.92,33-24.94a116.51,116.51,0,0,1,22.89,2.27V23.13a29.65,29.65,0,0,0-8.07-.88c-4.69,0-9.38,2.77-9.38,8v3.39h15.7v19H173.1V93l-38.4,0Z"/><path class="cls-1" d="M208.4,33.65V13l37-9.78v30.4h16.72v19h-16.7V64.19c0,5.61,3.24,8.66,8.07,8.66a30.19,30.19,0,0,0,8.66-1.15v19a101.21,101.21,0,0,1-25.38,3.45c-19.09,0-28.35-8.24-28.36-25.78V52.67h-13v-19Z"/><path class="cls-1" d="M587,34.52V13.88l37-9.79V34.5h16.73v19H624V65.06c0,5.62,3.24,8.67,8.07,8.66a29.46,29.46,0,0,0,8.66-1.15v19A102.72,102.72,0,0,1,615.34,95c-19.09,0-28.34-8.2-28.34-25.75V53.54H573.91v-19Z"/><path class="cls-1" d="M280,.16h47.09L341.4,52.29h.29L355.75.11h46.84l.06,93H370.26l-.63-70.88h-.29l-20.06,70.9h-18L311.73,22.28h-.58l-.4,70.87H280Z"/><path class="cls-1" d="M461.83,69.84c0,5-3.8,10.35-11.41,10.36-5.72,0-8.65-1.55-8.65-5.56,0-6,8.78-6.57,16.4-6.58h3.66ZM416.79,54a75.91,75.91,0,0,1,25.55-4.87c9.23,0,19.33.86,19.48,8.25-3.37-.21-9.22-.76-14.35-.76-18.35,0-39.49,3.56-39.48,21.29,0,12.06,13.82,16.9,28.07,16.9,10.38.07,19.77-3,24.9-9.53h.3V93h34.37V58.35c0-21-25.73-23.81-46.84-23.79-14.37,0-21,1-32,3.33Z"/><path class="cls-1" d="M501.68,75c7.05,3.18,17.63,5.15,27.18,5.15,6.15,0,13.42-.89,13.42-3.75,0-7-42.8-.19-42.81-22.39,0-16.65,24.81-19.54,42.93-19.55a140.54,140.54,0,0,1,25.89,2.41V52.39A72.2,72.2,0,0,0,545.93,49c-6.28,0-12.68.46-12.68,4.06,0,6,42.8-.93,42.81,20.77,0,16.4-24.95,20.84-42.34,20.85a172.76,172.76,0,0,1-32-3.29Z"/><path class="cls-1" d="M680.86,59.08c-.45-4.56,1.47-11.47,10-11.48s9.31,7,9.31,11.47Zm51.31,12.1V67.77c0-19.52-10.43-33.43-40.12-33.41-31,0-47.33,9.74-47.32,29.16,0,19.86,16.41,31.1,47.37,31.08,12.95,0,24.69-1,34.52-3.33V76.38c-5.87,2.32-15,3.64-25.09,3.65-10.91,0-19.91-1.64-20.51-8.81Z"/><path class="cls-1" d="M772.61,35.63v13h.29c4.38-8.17,11.68-14.35,23.23-14.36a29.53,29.53,0,0,1,6,.56v23A32.1,32.1,0,0,0,793.9,57C783.64,57,775,63.76,775,72.33V93.22H738V35.63Z"/><path class="cls-1" d="M787.91,85.14a6.79,6.79,0,1,1,0,.3C787.9,85.34,787.91,85.24,787.91,85.14Zm6.76,8.32a8.33,8.33,0,1,0-.19,0Zm-1.77-7.67h1.68l2.52,4.15h1.63L796,85.73a2.48,2.48,0,0,0,2.48-2.5V83.1c0-1.88-1.12-2.71-3.38-2.71h-3.64V90h1.45Zm0-1.21v-3h2c1,0,2.08.22,2.08,1.4,0,1.47-1.09,1.56-2.32,1.56Z"/></g></g></g></svg>