<svg xmlns="http://www.w3.org/2000/svg" viewBox="0 0 234.19 226.7"><defs><style>.cls-1{fill:#f4cd30;}.cls-2{fill:#fff;}.cls-3{fill:#b11943;}.cls-4{fill:none;stroke:#f4cd30;stroke-miterlimit:10;stroke-width:9px;}</style></defs><title>making_miracles_happenAsset 2</title><g id="Layer_2" data-name="Layer 2"><g id="Layer_1-2" data-name="Layer 1"><rect class="cls-1" x="4.5" y="86.49" width="225.19" height="49.76"/><path class="cls-2" d="M60.77,58.87,54,76.86H51l-6.71-18v18H37.4V50.2H47L52.5,65.31,58.1,50.2h9.55V76.86H60.77Z"/><path class="cls-2" d="M90.51,72.82H79.44l-1.36,4H70.61l10-26.66h8.63L99.34,76.86H91.87ZM81.24,67h7.47L85,56.2Z"/><path class="cls-2" d="M111,66.83l-1.8,2.23v7.8h-6.87V50.2h6.87V61.15l8.19-10.95h8.47L115.49,62.67,126.4,76.86H118Z"/><path class="cls-2" d="M129.45,50.2h6.87V76.86h-6.87Z"/><path class="cls-2" d="M149,60.75V76.86h-6.87V50.2h7.07L160,65.55V50.2h6.91V76.86h-6.63Z"/><path class="cls-2" d="M185.76,49.76A12.54,12.54,0,0,1,197.15,56l-5.75,3a6.64,6.64,0,0,0-5.64-3.15,7.35,7.35,0,0,0-7.43,7.71,7.35,7.35,0,0,0,7.43,7.71,8.31,8.31,0,0,0,5-1.6V67.43h-6.12V61.71h12.87V72.14a15.39,15.39,0,0,1-11.79,5.2c-7.95,0-14.43-5.32-14.43-13.79S177.81,49.76,185.76,49.76Z"/><path class="cls-3" d="M41.23,106.54l-6.75,18h-3l-6.72-18v18H17.85V97.87H27.4L33,113l5.59-15.1H48.1v26.65H41.23Z"/><path class="cls-3" d="M53.9,97.87h6.88v26.65H53.9Z"/><path class="cls-3" d="M77,115.49H73.45v9H66.57V97.87H79.92c5.92,0,9.27,3.91,9.27,8.87a8.07,8.07,0,0,1-5.31,8l5.43,9.79H81.44Zm1.92-11.83H73.45v6h5.43a3,3,0,1,0,0-6Z"/><path class="cls-3" d="M111.06,120.49H100l-1.36,4H91.16l10-26.65h8.63l10.07,26.65h-7.47Zm-9.27-5.8h7.47l-3.76-10.83Z"/><path class="cls-3" d="M120.21,111.21c0-8.23,6.24-13.78,14.23-13.78,6.63,0,10.07,3.63,11.83,7.15l-5.91,2.8a6.47,6.47,0,0,0-5.92-3.88c-4.16,0-7.23,3.36-7.23,7.71s3.07,7.72,7.23,7.72a6.47,6.47,0,0,0,5.92-3.88l5.91,2.8A12.47,12.47,0,0,1,134.44,125C126.45,125,120.21,119.41,120.21,111.21Z"/><path class="cls-3" d="M150.23,97.87h6.87v20.66h10.71v6H150.23Z"/><path class="cls-3" d="M172.37,97.87h19.54v5.79H179.25v4.44h12.38v5.83H179.25v4.8h12.66v5.79H172.37Z"/><path class="cls-3" d="M198.63,115.61a12,12,0,0,0,8.51,3.52c2.36,0,3.8-1,3.8-2.28,0-1.52-1.72-2.12-4.55-2.72-4.4-.88-10.56-2-10.56-8.31,0-4.48,3.8-8.35,10.64-8.35a16.27,16.27,0,0,1,10.82,3.71l-3.75,4.92a12.39,12.39,0,0,0-7.51-2.76c-2.28,0-3.16.92-3.16,2.08,0,1.4,1.64,1.88,4.59,2.44,4.4.92,10.47,2.2,10.47,8.23,0,5.36-4,8.91-11.11,8.91-5.39,0-9.15-1.68-11.82-4.23Z"/><path class="cls-2" d="M48,161.34H37v10.71H30.1V145.4H37v9.95H48V145.4h6.88v26.65H48Z"/><path class="cls-2" d="M77.78,168H66.71l-1.36,4H57.88l10-26.65h8.63l10.07,26.65H79.14Zm-9.27-5.8H76l-3.75-10.83Z"/><path class="cls-2" d="M89.58,145.4h13.34c6,0,9.28,4,9.28,8.87s-3.28,8.75-9.28,8.75H96.45v9H89.58ZM102,151.19H96.45v6H102a2.94,2.94,0,0,0,3.19-3A3,3,0,0,0,102,151.19Z"/><path class="cls-2" d="M116.28,145.4h13.34c6,0,9.28,4,9.28,8.87s-3.28,8.75-9.28,8.75h-6.47v9h-6.87Zm12.42,5.79h-5.55v6h5.55a2.94,2.94,0,0,0,3.2-3A3,3,0,0,0,128.7,151.19Z"/><path class="cls-2" d="M143,145.4h19.54v5.79H149.85v4.44h12.39v5.83H149.85v4.8h12.67v5.79H143Z"/><path class="cls-2" d="M174.39,156v16.1h-6.87V145.4h7.07l10.79,15.34V145.4h6.91v26.65h-6.63Z"/><path class="cls-2" d="M201.05,165a3.76,3.76,0,1,1-3.76,3.76A3.81,3.81,0,0,1,201.05,165Z"/><rect class="cls-4" x="4.5" y="4.5" width="225.19" height="217.7"/></g></g></svg>